<?xml version="1.0" encoding="UTF-8" standalone="no"?><!-- Generator: Gravit.io --><svg xmlns="http://www.w3.org/2000/svg" xmlns:xlink="http://www.w3.org/1999/xlink" style="isolation:isolate" viewBox="0 0 500 500" width="500pt" height="500pt"><defs><clipPath id="_clipPath_qGJ5JtodMsEoh2q5JRynA5kyDfpN6XHX"><rect width="500" height="500"/></clipPath></defs><g clip-path="url(#_clipPath_qGJ5JtodMsEoh2q5JRynA5kyDfpN6XHX)"><path d="M 35 0 L 465 0 C 484.317 0 500 15.683 500 35 L 500 465 C 500 484.317 484.317 500 465 500 L 35 500 C 15.683 500 0 484.317 0 465 L 0 35 C 0 15.683 15.683 0 35 0 Z" style="stroke:none;fill:#FFFFFF;stroke-miterlimit:10;"/><g style="isolation:isolate"><g><rect x="60.1" y="60.1" width="379.8" height="379.8" transform="matrix(1,0,0,1,0,0)" fill="none"/><circle vector-effect="non-scaling-stroke" cx="250.00000000000003" cy="250.00000000000003" r="182.304" fill="rgb(234,76,137)"/><path d=" M 250 60.1 C 145.164 60.1 60.1 145.164 60.1 250 C 60.1 354.836 145.164 439.9 250 439.9 C 354.63 439.9 439.9 354.836 439.9 250 C 439.9 145.164 354.63 60.1 250 60.1 Z  M 375.433 147.635 C 398.089 175.234 411.683 210.455 412.095 248.558 C 406.74 247.528 353.189 236.612 299.226 243.409 C 297.99 240.732 296.96 237.848 295.725 234.964 C 292.429 227.138 288.721 219.105 285.014 211.484 C 344.744 187.181 371.931 152.167 375.433 147.635 Z  M 250 88.111 C 291.193 88.111 328.885 103.559 357.514 128.892 C 354.63 133.012 330.12 165.76 272.45 187.387 C 245.881 138.573 216.428 98.616 211.897 92.437 C 224.048 89.553 236.818 88.111 250 88.111 Z  M 181.002 103.353 C 185.327 109.12 214.162 149.283 241.143 197.067 C 165.348 217.251 98.41 216.84 91.201 216.84 C 101.705 166.584 135.689 124.773 181.002 103.353 Z  M 87.699 250.206 C 87.699 248.558 87.699 246.911 87.699 245.263 C 94.702 245.469 173.381 246.499 254.325 222.195 C 259.062 231.257 263.388 240.526 267.507 249.794 C 265.447 250.412 263.182 251.03 261.122 251.648 C 177.5 278.629 133.012 352.365 129.304 358.544 C 103.559 329.914 87.699 291.811 87.699 250.206 Z  M 250 412.301 C 212.514 412.301 177.912 399.531 150.519 378.11 C 153.402 372.138 186.357 308.7 277.805 276.776 C 278.217 276.57 278.423 276.57 278.835 276.363 C 301.697 335.476 310.966 385.113 313.437 399.325 C 293.871 407.769 272.45 412.301 250 412.301 Z  M 340.419 384.496 C 338.771 374.609 330.121 327.237 308.906 268.949 C 359.78 260.916 404.268 274.098 409.829 275.952 C 402.826 321.058 376.874 359.986 340.419 384.496 Z " fill-rule="evenodd" fill="rgb(195,35,97)"/></g></g></g></svg>